<svg width="555" height="379" viewBox="0 0 555 379" fill="none" xmlns="http://www.w3.org/2000/svg">
<path d="M71.7515 105.813C71.7515 103.314 71.512 101.039 71.033 98.9879C70.5539 96.9371 69.5274 95.0465 67.9533 93.3161C66.4478 91.5856 64.2236 89.8552 61.2808 88.1248C58.4065 86.3944 54.6426 84.5999 49.9889 82.7413C44.4456 80.5623 39.0734 78.2551 33.8723 75.8197C28.6711 73.3202 23.9833 70.4362 19.8087 67.1677C15.6341 63.8991 12.315 60.0538 9.85127 55.6316C7.45601 51.1454 6.25838 45.8901 6.25838 39.8657C6.25838 33.9695 7.38758 28.618 9.64596 23.8114C11.9728 19.0047 15.2577 14.903 19.5007 11.5062C23.7438 8.04542 28.7054 5.38572 34.3855 3.52714C40.1342 1.66855 46.5329 0.739258 53.5818 0.739258C63.1628 0.739258 71.4436 2.59784 78.424 6.31502C85.4729 10.0322 90.9136 15.1273 94.746 21.6003C98.6469 28.0733 100.597 35.5076 100.597 43.9033H70.6223C70.6223 39.9298 70.0064 36.4369 68.7746 33.4247C67.6112 30.3485 65.7292 27.9451 63.1286 26.2147C60.5281 24.4843 57.1747 23.6191 53.0685 23.6191C49.2361 23.6191 46.0539 24.3561 43.5217 25.8302C41.058 27.2401 39.2103 29.1948 37.9784 31.6943C36.815 34.1297 36.2333 36.8855 36.2333 39.9618C36.2333 42.269 36.815 44.3519 37.9784 46.2105C39.2103 48.005 40.887 49.6393 43.0085 51.1133C45.13 52.5233 47.6279 53.9012 50.5022 55.2471C53.4449 56.593 56.6614 57.9068 60.1517 59.1886C66.9268 61.6881 72.915 64.4439 78.1161 67.4561C83.3172 70.4042 87.6629 73.7368 91.1531 77.454C94.6434 81.1071 97.2781 85.2408 99.0575 89.8552C100.837 94.4697 101.726 99.725 101.726 105.621C101.726 111.453 100.631 116.773 98.4415 121.579C96.32 126.322 93.2062 130.424 89.1 133.884C84.9939 137.281 80.0323 139.909 74.2152 141.767C68.4666 143.626 62.0336 144.555 54.9163 144.555C48.0043 144.555 41.4687 143.658 35.3094 141.864C29.1502 140.005 23.7095 137.217 18.9875 133.5C14.3338 129.719 10.6725 124.944 8.0035 119.176C5.3345 113.344 4 106.454 4 98.5073H34.0776C34.0776 102.737 34.5224 106.358 35.4121 109.37C36.3017 112.318 37.6705 114.69 39.5182 116.484C41.366 118.215 43.6244 119.529 46.2934 120.426C49.0308 121.259 52.1447 121.676 55.6349 121.676C59.6042 121.676 62.7522 120.971 65.079 119.561C67.4743 118.151 69.1852 116.26 70.2117 113.889C71.2383 111.517 71.7515 108.826 71.7515 105.813Z" fill="#E6EBED"/>
<path d="M148.845 60.8228V142.633H119.999V38.616H146.997L148.845 60.8228ZM144.533 87.0674L136.834 87.2596C136.697 79.4408 137.484 72.423 139.195 66.2063C140.974 59.9897 143.507 54.7023 146.792 50.3443C150.076 45.9221 153.977 42.5574 158.494 40.2502C163.011 37.8789 168.109 36.6933 173.789 36.6933C178.032 36.6933 181.933 37.3983 185.492 38.8082C189.119 40.2182 192.233 42.4613 194.834 45.5376C197.434 48.6139 199.453 52.6835 200.89 57.7466C202.327 62.8096 203.046 69.0583 203.046 76.4926V142.633H174.2V76.3004C174.2 71.8141 173.721 68.3533 172.763 65.9179C171.805 63.4185 170.368 61.6881 168.451 60.7267C166.604 59.7013 164.208 59.1886 161.266 59.1886C158.528 59.1886 156.099 59.9256 153.977 61.3996C151.856 62.8096 150.076 64.7643 148.639 67.2638C147.271 69.7633 146.21 72.7114 145.457 76.1081C144.773 79.5048 144.465 83.1579 144.533 87.0674Z" fill="#E6EBED"/>
<path d="M273.056 118.695V70.6285C273.056 67.4881 272.645 64.9886 271.824 63.1301C271.071 61.2715 269.908 59.9256 268.334 59.0924C266.828 58.1952 264.98 57.7466 262.79 57.7466C260.327 57.7466 258.274 58.2272 256.631 59.1886C254.989 60.1499 253.757 61.5278 252.936 63.3223C252.183 65.1168 251.806 67.2638 251.806 69.7633H222.961C222.961 65.277 223.885 61.0472 225.732 57.0736C227.58 53.036 230.283 49.5111 233.842 46.4989C237.469 43.4226 241.781 41.0193 246.776 39.2889C251.772 37.5585 257.384 36.6933 263.612 36.6933C271.003 36.6933 277.573 37.8789 283.321 40.2502C289.07 42.5574 293.621 46.2426 296.974 51.3056C300.327 56.3687 302.004 62.9378 302.004 71.013V117.349C302.004 123.182 302.312 127.924 302.928 131.577C303.612 135.23 304.605 138.371 305.905 140.998V142.633H276.957C275.656 139.749 274.664 136.16 273.98 131.866C273.364 127.508 273.056 123.118 273.056 118.695ZM276.546 79.0883L276.649 95.2387H266.075C263.338 95.2387 260.943 95.6553 258.89 96.4885C256.905 97.3216 255.228 98.5073 253.859 100.045C252.491 101.519 251.464 103.25 250.78 105.237C250.164 107.223 249.856 109.338 249.856 111.581C249.856 114.081 250.232 116.196 250.985 117.926C251.738 119.657 252.867 120.971 254.373 121.868C255.878 122.765 257.658 123.214 259.711 123.214C262.859 123.214 265.596 122.605 267.923 121.387C270.25 120.169 271.961 118.695 273.056 116.965C274.219 115.235 274.596 113.632 274.185 112.158L280.755 122.637C279.934 125.008 278.804 127.476 277.367 130.039C275.998 132.603 274.253 134.974 272.132 137.153C270.01 139.332 267.376 141.127 264.228 142.537C261.148 143.882 257.487 144.555 253.244 144.555C247.29 144.555 241.849 143.274 236.922 140.71C231.994 138.146 228.093 134.557 225.219 129.943C222.413 125.329 221.01 119.849 221.01 113.504C221.01 108.249 221.9 103.506 223.679 99.2763C225.527 94.9824 228.264 91.3613 231.892 88.4132C235.519 85.401 240.104 83.0938 245.647 81.4916C251.19 79.8894 257.692 79.0883 265.151 79.0883H276.546Z" fill="#E6EBED"/>
<path d="M351.997 58.6118V182.624H323.356V38.616H349.841L351.997 58.6118ZM409.688 87.0674V93.989C409.688 102.128 408.935 109.338 407.43 115.619C405.924 121.836 403.666 127.123 400.654 131.481C397.712 135.775 394.016 139.044 389.568 141.287C385.12 143.466 379.918 144.555 373.964 144.555C368.421 144.555 363.631 143.338 359.593 140.902C355.624 138.403 352.27 134.974 349.533 130.616C346.795 126.258 344.605 121.163 342.963 115.331C341.321 109.499 340.054 103.25 339.165 96.5846V85.8176C339.986 78.7037 341.184 72.1666 342.758 66.2063C344.332 60.182 346.487 54.9587 349.225 50.5365C352.031 46.1144 355.418 42.7177 359.388 40.3464C363.425 37.911 368.216 36.6933 373.759 36.6933C379.782 36.6933 385.017 37.7187 389.465 39.7696C393.982 41.8204 397.712 44.9287 400.654 49.0945C403.666 53.1962 405.924 58.4195 407.43 64.7643C408.935 71.1092 409.688 78.5435 409.688 87.0674ZM380.842 93.989V87.0674C380.842 82.0684 380.569 77.8065 380.021 74.2816C379.474 70.7567 378.584 67.8727 377.352 65.6295C376.12 63.3864 374.512 61.7521 372.527 60.7267C370.543 59.7013 368.113 59.1886 365.239 59.1886C362.433 59.1886 359.969 59.7013 357.848 60.7267C355.795 61.7521 354.118 63.2582 352.818 65.245C351.517 67.1677 350.525 69.539 349.841 72.3589C349.156 75.1147 348.78 78.2551 348.712 81.78V100.622C348.849 104.788 349.43 108.473 350.457 111.678C351.552 114.882 353.297 117.446 355.692 119.368C358.087 121.227 361.338 122.156 365.444 122.156C368.387 122.156 370.816 121.579 372.733 120.426C374.717 119.272 376.326 117.542 377.557 115.235C378.789 112.927 379.645 110.011 380.124 106.486C380.603 102.961 380.842 98.7957 380.842 93.989Z" fill="#E6EBED"/>
<path d="M71.7515 265.78C71.7515 263.281 71.512 261.005 71.033 258.954C70.5539 256.904 69.5274 255.013 67.9533 253.283C66.4478 251.552 64.2236 249.822 61.2808 248.091C58.4065 246.361 54.6426 244.566 49.9889 242.708C44.4456 240.529 39.0734 238.222 33.8723 235.786C28.6711 233.287 23.9833 230.403 19.8087 227.134C15.6341 223.866 12.315 220.02 9.85127 215.598C7.45601 211.112 6.25838 205.857 6.25838 199.832C6.25838 193.936 7.38758 188.585 9.64596 183.778C11.9728 178.971 15.2577 174.87 19.5007 171.473C23.7438 168.012 28.7054 165.352 34.3855 163.494C40.1342 161.635 46.5329 160.706 53.5818 160.706C63.1628 160.706 71.4436 162.564 78.424 166.282C85.4729 169.999 90.9136 175.094 94.746 181.567C98.6469 188.04 100.597 195.474 100.597 203.87H70.6223C70.6223 199.896 70.0064 196.403 68.7746 193.391C67.6112 190.315 65.7292 187.912 63.1286 186.181C60.5281 184.451 57.1747 183.586 53.0685 183.586C49.2361 183.586 46.0539 184.323 43.5217 185.797C41.058 187.207 39.2103 189.161 37.9784 191.661C36.815 194.096 36.2333 196.852 36.2333 199.928C36.2333 202.236 36.815 204.318 37.9784 206.177C39.2103 207.972 40.887 209.606 43.0085 211.08C45.13 212.49 47.6279 213.868 50.5022 215.214C53.4449 216.56 56.6614 217.873 60.1517 219.155C66.9268 221.655 72.915 224.41 78.1161 227.423C83.3172 230.371 87.6629 233.703 91.1531 237.421C94.6434 241.074 97.2781 245.207 99.0575 249.822C100.837 254.436 101.726 259.692 101.726 265.588C101.726 271.42 100.631 276.739 98.4415 281.546C96.32 286.289 93.2062 290.39 89.1 293.851C84.9939 297.248 80.0323 299.875 74.2152 301.734C68.4666 303.593 62.0336 304.522 54.9163 304.522C48.0043 304.522 41.4687 303.625 35.3094 301.83C29.1502 299.972 23.7095 297.184 18.9875 293.467C14.3338 289.685 10.6725 284.911 8.0035 279.143C5.3345 273.31 4 266.421 4 258.474H34.0776C34.0776 262.704 34.5224 266.325 35.4121 269.337C36.3017 272.285 37.6705 274.656 39.5182 276.451C41.366 278.181 43.6244 279.495 46.2934 280.392C49.0308 281.225 52.1447 281.642 55.6349 281.642C59.6042 281.642 62.7522 280.937 65.079 279.527C67.4743 278.117 69.1852 276.227 70.2117 273.855C71.2383 271.484 71.7515 268.792 71.7515 265.78Z" fill="#E6EBED"/>
<path d="M160.752 282.123C163.421 282.123 165.714 281.61 167.63 280.585C169.615 279.559 171.12 277.893 172.147 275.586C173.174 273.278 173.721 270.298 173.789 266.645H200.787C200.787 274.464 199.008 281.225 195.449 286.929C191.959 292.569 187.237 296.927 181.283 300.004C175.398 303.016 168.725 304.522 161.266 304.522C153.806 304.522 147.305 303.4 141.761 301.157C136.218 298.914 131.633 295.646 128.006 291.352C124.447 287.058 121.744 281.834 119.896 275.682C118.117 269.465 117.227 262.351 117.227 254.34V246.745C117.227 238.863 118.117 231.813 119.896 225.596C121.744 219.379 124.447 214.124 128.006 209.83C131.633 205.536 136.184 202.268 141.659 200.025C147.202 197.781 153.704 196.66 161.163 196.66C169.17 196.66 176.116 198.23 182.002 201.37C187.887 204.447 192.472 208.997 195.757 215.021C199.111 221.046 200.787 228.48 200.787 237.324H173.789C173.721 233.351 173.208 230.05 172.25 227.423C171.36 224.731 169.957 222.68 168.041 221.27C166.193 219.796 163.729 219.059 160.65 219.059C157.433 219.059 154.833 219.7 152.848 220.982C150.932 222.199 149.461 223.994 148.434 226.365C147.476 228.672 146.826 231.556 146.484 235.017C146.141 238.478 145.97 242.387 145.97 246.745V254.34C145.97 259.019 146.107 263.088 146.381 266.549C146.723 269.946 147.373 272.83 148.331 275.201C149.358 277.508 150.829 279.239 152.745 280.392C154.73 281.546 157.399 282.123 160.752 282.123Z" fill="#E6EBED"/>
<path d="M214.03 254.148V247.13C214.03 238.991 215.056 231.781 217.109 225.5C219.231 219.219 222.242 213.964 226.143 209.734C230.044 205.44 234.732 202.204 240.207 200.025C245.75 197.781 251.943 196.66 258.787 196.66C265.699 196.66 271.892 197.781 277.367 200.025C282.911 202.204 287.633 205.44 291.533 209.734C295.503 213.964 298.548 219.219 300.67 225.5C302.791 231.781 303.852 238.991 303.852 247.13V254.148C303.852 262.223 302.791 269.401 300.67 275.682C298.548 281.963 295.503 287.25 291.533 291.544C287.633 295.838 282.945 299.074 277.47 301.253C271.995 303.432 265.836 304.522 258.992 304.522C252.149 304.522 245.955 303.432 240.412 301.253C234.937 299.074 230.215 295.838 226.246 291.544C222.276 287.25 219.231 281.963 217.109 275.682C215.056 269.401 214.03 262.223 214.03 254.148ZM242.773 247.13V254.148C242.773 258.954 243.115 263.12 243.799 266.645C244.552 270.17 245.613 273.086 246.982 275.393C248.419 277.701 250.13 279.399 252.114 280.488C254.099 281.578 256.392 282.123 258.992 282.123C261.593 282.123 263.92 281.578 265.973 280.488C268.026 279.399 269.702 277.701 271.003 275.393C272.371 273.086 273.364 270.17 273.98 266.645C274.664 263.12 275.006 258.954 275.006 254.148V247.13C275.006 242.452 274.63 238.35 273.877 234.825C273.124 231.236 272.063 228.32 270.695 226.077C269.326 223.77 267.615 222.039 265.562 220.886C263.577 219.668 261.319 219.059 258.787 219.059C256.255 219.059 253.996 219.668 252.012 220.886C250.096 222.039 248.419 223.77 246.982 226.077C245.613 228.32 244.552 231.236 243.799 234.825C243.115 238.35 242.773 242.452 242.773 247.13Z" fill="#E6EBED"/>
<path d="M375.71 277.604V198.583H404.555V302.599H377.455L375.71 277.604ZM378.995 256.167L387.002 255.974C387.002 262.896 386.283 269.337 384.846 275.297C383.409 281.258 381.253 286.417 378.379 290.775C375.573 295.133 371.98 298.53 367.6 300.965C363.288 303.336 358.19 304.522 352.305 304.522C347.788 304.522 343.613 303.817 339.781 302.407C336.017 300.933 332.766 298.658 330.029 295.581C327.291 292.441 325.135 288.436 323.561 283.565C322.056 278.63 321.303 272.702 321.303 265.78V198.583H350.149V266.068C350.149 268.888 350.423 271.324 350.97 273.375C351.518 275.361 352.27 276.996 353.228 278.277C354.186 279.559 355.316 280.488 356.616 281.065C357.916 281.578 359.388 281.834 361.03 281.834C365.547 281.834 369.106 280.745 371.706 278.566C374.375 276.323 376.257 273.278 377.352 269.433C378.447 265.524 378.995 261.101 378.995 256.167Z" fill="#E6EBED"/>
<path d="M473.949 198.583V218.867H417.284V198.583H473.949ZM430.321 172.915H458.962V270.875C458.962 273.759 459.27 275.97 459.886 277.508C460.502 279.046 461.426 280.136 462.657 280.777C463.958 281.354 465.634 281.642 467.687 281.642C469.193 281.642 470.562 281.578 471.794 281.45C473.025 281.258 473.949 281.065 474.565 280.873V301.926C472.307 302.759 469.912 303.4 467.379 303.849C464.916 304.298 461.973 304.522 458.551 304.522C452.871 304.522 447.909 303.496 443.666 301.446C439.423 299.395 436.139 296.126 433.812 291.64C431.485 287.09 430.321 281.129 430.321 273.759V172.915Z" fill="#E6EBED"/>
<circle cx="498.391" cy="289.631" r="14.8913" fill="#E6EBED"/>
<g filter="url(#filter0_d_268_457)">
<path d="M24.874 347.992C24.678 347.796 24.314 347.53 23.782 347.194C23.278 346.858 22.648 346.536 21.892 346.228C21.164 345.92 20.366 345.654 19.498 345.43C18.63 345.178 17.748 345.052 16.852 345.052C15.284 345.052 14.094 345.346 13.282 345.934C12.498 346.522 12.106 347.348 12.106 348.412C12.106 349.224 12.358 349.868 12.862 350.344C13.366 350.82 14.122 351.226 15.13 351.562C16.138 351.898 17.398 352.262 18.91 352.654C20.87 353.13 22.564 353.718 23.992 354.418C25.448 355.09 26.554 355.986 27.31 357.106C28.094 358.198 28.486 359.654 28.486 361.474C28.486 363.07 28.192 364.442 27.604 365.59C27.016 366.71 26.204 367.62 25.168 368.32C24.132 369.02 22.956 369.538 21.64 369.874C20.324 370.182 18.924 370.336 17.44 370.336C15.956 370.336 14.472 370.182 12.988 369.874C11.504 369.566 10.076 369.132 8.704 368.572C7.332 367.984 6.072 367.284 4.924 366.472L7.486 361.474C7.738 361.726 8.186 362.062 8.83 362.482C9.474 362.874 10.258 363.28 11.182 363.7C12.106 364.092 13.114 364.428 14.206 364.708C15.298 364.988 16.404 365.128 17.524 365.128C19.092 365.128 20.282 364.862 21.094 364.33C21.906 363.798 22.312 363.042 22.312 362.062C22.312 361.166 21.99 360.466 21.346 359.962C20.702 359.458 19.806 359.024 18.658 358.66C17.51 358.268 16.152 357.848 14.584 357.4C12.708 356.868 11.14 356.28 9.88 355.636C8.62 354.964 7.682 354.124 7.066 353.116C6.45 352.108 6.142 350.848 6.142 349.336C6.142 347.292 6.618 345.584 7.57 344.212C8.55 342.812 9.866 341.762 11.518 341.062C13.17 340.334 15.004 339.97 17.02 339.97C18.42 339.97 19.736 340.124 20.968 340.432C22.228 340.74 23.404 341.146 24.496 341.65C25.588 342.154 26.568 342.7 27.436 343.288L24.874 347.992ZM61.9718 364.918V370H41.2658V340.18H61.5938V345.262H47.0618V352.444H59.6198V357.148H47.0618V364.918H61.9718ZM74.8904 370V340.18H80.6864V370H74.8904ZM93.46 365.632L110.092 345.262H93.922V340.18H116.98V344.548L100.894 364.918H117.106V370H93.46V365.632ZM150.746 364.918V370H130.04V340.18H150.368V345.262H135.836V352.444H148.394V357.148H135.836V364.918H150.746ZM203.226 345.262H193.692V370H187.938V345.262H178.404V340.18H203.226V345.262ZM227.357 370.21C225.173 370.21 223.185 369.79 221.393 368.95C219.629 368.11 218.103 366.976 216.815 365.548C215.555 364.092 214.575 362.468 213.875 360.676C213.175 358.856 212.825 356.994 212.825 355.09C212.825 353.102 213.189 351.212 213.917 349.42C214.673 347.6 215.695 345.99 216.983 344.59C218.299 343.162 219.839 342.042 221.603 341.23C223.395 340.39 225.355 339.97 227.483 339.97C229.639 339.97 231.599 340.404 233.363 341.272C235.155 342.14 236.681 343.302 237.941 344.758C239.201 346.214 240.181 347.838 240.881 349.63C241.581 351.422 241.931 353.27 241.931 355.174C241.931 357.134 241.567 359.024 240.839 360.844C240.111 362.636 239.089 364.246 237.773 365.674C236.485 367.074 234.945 368.18 233.153 368.992C231.389 369.804 229.457 370.21 227.357 370.21ZM218.705 355.09C218.705 356.378 218.901 357.624 219.293 358.828C219.685 360.032 220.245 361.11 220.973 362.062C221.729 362.986 222.639 363.728 223.703 364.288C224.795 364.82 226.027 365.086 227.399 365.086C228.799 365.086 230.045 364.806 231.137 364.246C232.229 363.658 233.139 362.888 233.867 361.936C234.595 360.956 235.141 359.878 235.505 358.702C235.897 357.498 236.093 356.294 236.093 355.09C236.093 353.802 235.883 352.57 235.463 351.394C235.071 350.19 234.497 349.126 233.741 348.202C233.013 347.25 232.103 346.508 231.011 345.976C229.947 345.416 228.743 345.136 227.399 345.136C225.971 345.136 224.711 345.43 223.619 346.018C222.555 346.578 221.659 347.334 220.931 348.286C220.203 349.238 219.643 350.302 219.251 351.478C218.887 352.654 218.705 353.858 218.705 355.09ZM293.973 364.918V370H273.267V340.18H293.595V345.262H279.063V352.444H291.621V357.148H279.063V364.918H293.973ZM309.999 340.18L317.391 351.184L324.741 340.18H331.041L320.709 355.3L330.705 370H324.405L317.391 359.416L310.335 370H303.993L313.989 355.3L303.657 340.18H309.999ZM342.444 370V340.18H355.086C356.458 340.18 357.718 340.46 358.866 341.02C360.014 341.58 361.008 342.336 361.848 343.288C362.716 344.24 363.388 345.304 363.864 346.48C364.34 347.656 364.578 348.86 364.578 350.092C364.578 351.772 364.186 353.368 363.402 354.88C362.618 356.392 361.54 357.624 360.168 358.576C358.796 359.528 357.172 360.004 355.296 360.004H348.24V370H342.444ZM348.24 354.922H354.96C355.66 354.922 356.29 354.726 356.85 354.334C357.41 353.942 357.858 353.382 358.194 352.654C358.53 351.898 358.698 351.044 358.698 350.092C358.698 349.056 358.502 348.174 358.11 347.446C357.746 346.718 357.256 346.172 356.64 345.808C356.052 345.444 355.408 345.262 354.708 345.262H348.24V354.922ZM377.012 370V340.18H382.808V364.918H398.012V370H377.012ZM422.009 370.21C419.825 370.21 417.837 369.79 416.045 368.95C414.281 368.11 412.755 366.976 411.467 365.548C410.207 364.092 409.227 362.468 408.527 360.676C407.827 358.856 407.477 356.994 407.477 355.09C407.477 353.102 407.841 351.212 408.569 349.42C409.325 347.6 410.347 345.99 411.635 344.59C412.951 343.162 414.491 342.042 416.255 341.23C418.047 340.39 420.007 339.97 422.135 339.97C424.291 339.97 426.251 340.404 428.015 341.272C429.807 342.14 431.333 343.302 432.593 344.758C433.853 346.214 434.833 347.838 435.533 349.63C436.233 351.422 436.583 353.27 436.583 355.174C436.583 357.134 436.219 359.024 435.491 360.844C434.763 362.636 433.741 364.246 432.425 365.674C431.137 367.074 429.597 368.18 427.805 368.992C426.041 369.804 424.109 370.21 422.009 370.21ZM413.357 355.09C413.357 356.378 413.553 357.624 413.945 358.828C414.337 360.032 414.897 361.11 415.625 362.062C416.381 362.986 417.291 363.728 418.355 364.288C419.447 364.82 420.679 365.086 422.051 365.086C423.451 365.086 424.697 364.806 425.789 364.246C426.881 363.658 427.791 362.888 428.519 361.936C429.247 360.956 429.793 359.878 430.157 358.702C430.549 357.498 430.745 356.294 430.745 355.09C430.745 353.802 430.535 352.57 430.115 351.394C429.723 350.19 429.149 349.126 428.393 348.202C427.665 347.25 426.755 346.508 425.663 345.976C424.599 345.416 423.395 345.136 422.051 345.136C420.623 345.136 419.363 345.43 418.271 346.018C417.207 346.578 416.311 347.334 415.583 348.286C414.855 349.238 414.295 350.302 413.903 351.478C413.539 352.654 413.357 353.858 413.357 355.09ZM449.429 370V340.18H462.617C463.989 340.18 465.249 340.46 466.397 341.02C467.573 341.58 468.581 342.336 469.421 343.288C470.289 344.24 470.947 345.304 471.395 346.48C471.871 347.656 472.109 348.86 472.109 350.092C472.109 351.352 471.885 352.57 471.437 353.746C471.017 354.894 470.401 355.902 469.589 356.77C468.777 357.638 467.825 358.31 466.733 358.786L473.537 370H467.153L461.021 360.004H455.225V370H449.429ZM455.225 354.922H462.491C463.219 354.922 463.863 354.712 464.423 354.292C464.983 353.844 465.431 353.256 465.767 352.528C466.103 351.8 466.271 350.988 466.271 350.092C466.271 349.14 466.075 348.314 465.683 347.614C465.291 346.886 464.787 346.312 464.171 345.892C463.583 345.472 462.939 345.262 462.239 345.262H455.225V354.922ZM506.466 364.918V370H485.76V340.18H506.088V345.262H491.556V352.444H504.114V357.148H491.556V364.918H506.466Z" fill="#E6EBED"/>
</g>
<defs>
<filter id="filter0_d_268_457" x="0.923828" y="339.97" width="509.543" height="38.3662" filterUnits="userSpaceOnUse" color-interpolation-filters="sRGB">
<feFlood flood-opacity="0" result="BackgroundImageFix"/>
<feColorMatrix in="SourceAlpha" type="matrix" values="0 0 0 0 0 0 0 0 0 0 0 0 0 0 0 0 0 0 127 0" result="hardAlpha"/>
<feOffset dy="4"/>
<feGaussianBlur stdDeviation="2"/>
<feComposite in2="hardAlpha" operator="out"/>
<feColorMatrix type="matrix" values="0 0 0 0 0 0 0 0 0 0 0 0 0 0 0 0 0 0 0.25 0"/>
<feBlend mode="normal" in2="BackgroundImageFix" result="effect1_dropShadow_268_457"/>
<feBlend mode="normal" in="SourceGraphic" in2="effect1_dropShadow_268_457" result="shape"/>
</filter>
</defs>
</svg>
